<?xml version="1.0" encoding="UTF-8" standalone="no"?>
<svg
   xmlns:dc="http://purl.org/dc/elements/1.1/"
   xmlns:cc="http://creativecommons.org/ns#"
   xmlns:rdf="http://www.w3.org/1999/02/22-rdf-syntax-ns#"
   xmlns:svg="http://www.w3.org/2000/svg"
   xmlns="http://www.w3.org/2000/svg"
   xmlns:sodipodi="http://sodipodi.sourceforge.net/DTD/sodipodi-0.dtd"
   xmlns:inkscape="http://www.inkscape.org/namespaces/inkscape"
   version="1.1"
   id="svg2"
   xml:space="preserve"
   width="6744"
   height="2666.6667"
   viewBox="0 0 6744 2666.6667"
   sodipodi:docname="10827.eps"><metadata
     id="metadata8"><rdf:RDF><cc:Work
         rdf:about=""><dc:format>image/svg+xml</dc:format><dc:type
           rdf:resource="http://purl.org/dc/dcmitype/StillImage" /></cc:Work></rdf:RDF></metadata><defs
     id="defs6" /><sodipodi:namedview
     pagecolor="#ffffff"
     bordercolor="#666666"
     borderopacity="1"
     objecttolerance="10"
     gridtolerance="10"
     guidetolerance="10"
     inkscape:pageopacity="0"
     inkscape:pageshadow="2"
     inkscape:window-width="640"
     inkscape:window-height="480"
     id="namedview4" /><g
     id="g10"
     inkscape:groupmode="layer"
     inkscape:label="ink_ext_XXXXXX"
     transform="matrix(1.3333333,0,0,-1.3333333,0,2666.6667)"><g
       id="g12"
       transform="scale(0.1)"><path
         d="M 50580,0 H 0 V 20000 H 50580 V 0"
         style="fill:#ffffff;fill-opacity:1;fill-rule:nonzero;stroke:none"
         id="path14" /><path
         d="m 7728.86,10902.3 c -66.16,-0.6 -132.32,1.6 -198.07,9.3 -74.33,8.5 -169.32,15.8 -224.23,5.8 -115.58,-21.2 -300.12,-97.9 -364.98,-247 -80.8,-185.7 -351.22,-150.5 -48.94,-871 342.15,-815.5 773.99,-563 780.33,-545 6.35,18.1 228.21,677.1 228.21,677.1 0,0 247.49,-258.8 243.57,-247.5 -3.78,10.9 378.98,1225.8 -415.89,1218.3"
         style="fill:#0e2e35;fill-opacity:1;fill-rule:nonzero;stroke:none"
         id="path16" /><path
         d="m 44771,2711.4 167.7,1399.3 -1846.6,486 c 0,0 -147.5,-288.1 -147.5,-301.1 0,-411.9 -60.2,-976.6 -114.4,-1584.2 H 44771"
         style="fill:#355389;fill-opacity:1;fill-rule:nonzero;stroke:none"
         id="path18" /><path
         d="m 46027.1,2711.4 -222.9,1761.5 h -2444.5 l -50.9,-227.4 437.3,-1534.1 h 2281"
         style="fill:#466eb6;fill-opacity:1;fill-rule:nonzero;stroke:none"
         id="path20" /><path
         d="m 38343.1,2711.4 c -13.3,709.9 -135.9,1201.4 -135.9,1201.4 l -363.7,-3.3 -1262.2,-466.2 109.8,-731.9 h 1652"
         style="fill:#13375b;fill-opacity:1;fill-rule:nonzero;stroke:none"
         id="path22" /><path
         d="m 35949.1,2711.4 h 1816 c 34.4,197.5 57.9,333.3 64.6,366.3 20.7,100.6 69.1,473.4 137.9,708.7 57,194.9 67.5,400.7 30.7,600.5 l -1474,155 -2.8,-166.1 c -49.2,-96.4 -680.8,-296.1 -625.5,-1287 5.3,-94 24.8,-224.7 53.1,-377.4"
         style="fill:#355389;fill-opacity:1;fill-rule:nonzero;stroke:none"
         id="path24" /><path
         d="m 27335.3,2711.4 h 972.2 l -635.4,2135.2 -291,-198.1 c 0,0 -223.1,-785.5 -121.7,-1344.1 16.4,-90.4 43,-302.2 75.9,-593"
         style="fill:#3c8f7c;fill-opacity:1;fill-rule:nonzero;stroke:none"
         id="path26" /><path
         d="m 27964.1,2711.4 h 1495.3 c 7,437.3 12.3,831.6 -29.5,1044.2 -101.4,515.6 -527.4,1138.7 -527.4,1138.7 l -1521.4,193.4 252.5,-1439.4 330.5,-936.9"
         style="fill:#50bfa5;fill-opacity:1;fill-rule:nonzero;stroke:none"
         id="path28" /><path
         d="m 23520.8,3760.8 v -459.4 c 0,-238.8 -199.8,-432.5 -446.2,-432.5 h -458.9 v 1071 h 720.3 c 49.4,0 94.1,-18.7 127.2,-49.3 35.5,-32.5 57.6,-78.6 57.6,-129.8"
         style="fill:#0e2e35;fill-opacity:1;fill-rule:nonzero;stroke:none"
         id="path30" /><path
         d="m 21748.8,3728.4 158.4,3.2 -89.3,4155.2 c 166.1,-29.5 305.1,-148.2 352.3,-308.7 l 1102.3,-3752.3 152.5,41.6 -1102.4,3752.3 c -73.8,251.5 -314.7,427.1 -585.7,427.1 h -80.9 l 92.8,-4318.4"
         style="fill:#0e2e35;fill-opacity:1;fill-rule:nonzero;stroke:none"
         id="path32" /><path
         d="m 23463.2,3890.6 h -3 c -94.7,0 -171.5,-74.4 -171.5,-166.2 v -337.9 c 0,-285.9 -239,-517.6 -533.9,-517.6 h -279.4 c -294.9,0 -533.9,231.7 -533.9,517.6 v 336.2 c 0,120 100.3,217.2 224,217.2 H 23336 c 49.4,0 94.1,-18.7 127.2,-49.3"
         style="fill:#184655;fill-opacity:1;fill-rule:nonzero;stroke:none"
         id="path34" /><path
         d="m 22861.3,2711.4 -382.8,1531.1 -492.7,-1531.1 z"
         style="fill:#f7cc7f;fill-opacity:1;fill-rule:nonzero;stroke:none"
         id="path36" /><path
         d="m 22175.3,2711.4 c 160.1,810.8 297.1,1537.3 297.1,1537.3 l -1789.7,179 c 0,0 -12.9,-818.1 -5.6,-1716.3 h 1498.2"
         style="fill:#fae0b2;fill-opacity:1;fill-rule:nonzero;stroke:none"
         id="path38" /><path
         d="M 14673,2711.4 14939.1,4350 13379,4761.3 c 0,0 -72.7,-734.6 -72.7,-745.5 0,-360.6 -21.6,-825.5 -50.5,-1304.4 H 14673"
         style="fill:#355389;fill-opacity:1;fill-rule:nonzero;stroke:none"
         id="path40" /><path
         d="m 15705.4,2711.4 -79.9,703.9 -120.2,696.3 -1900.2,544.9 -43,-817.4 375.4,-1127.7 h 1767.9"
         style="fill:#466eb6;fill-opacity:1;fill-rule:nonzero;stroke:none"
         id="path42" /><path
         d="m 9062.03,2711.4 c -40.18,604.4 -75.38,1228.9 -75.38,1683.5 0,10.7 -70.92,727.8 -70.92,727.8 L 7392.8,4721.1 7719.09,2711.4 h 1342.94"
         style="fill:#b75742;fill-opacity:1;fill-rule:nonzero;stroke:none"
         id="path44" /><path
         d="m 8234.03,2711.4 502.95,1511 -41.96,798 -1854.98,-532 -117.36,-679.7 -124.55,-1097.3 h 1635.9"
         style="fill:#f47458;fill-opacity:1;fill-rule:nonzero;stroke:none"
         id="path46" /><path
         d="m 42944,10626.4 c 5.3,23.3 9.8,43 13.2,57.7 24.2,104 65.5,187.9 102.9,256.5 37.4,68.7 101.3,186.9 103.1,247 1.1,37.8 7.8,139.8 11.4,194.3 3.7,54.5 10.2,118.2 8.7,147.3 -1,17.7 12.1,55.1 22.4,81.7 15.4,39.6 -26,77.8 -64,58.8 -35.9,-17.9 -58.2,-70.7 -71.9,-103.7 -38.7,-92.9 -43.5,-253.1 -57.3,-246.6 -13.9,6.4 -96.4,265.3 -107.8,294.3 -11.3,29 -108.9,329.3 -147.2,381.2 -38.3,52 -76.9,36.9 -82.5,0.1 -4.7,-31.6 99.4,-456.5 99.4,-456.5 0,0 13.1,-54.2 -13.4,-40.5 -26.5,13.8 -121.8,399.3 -146.8,454.2 -24.9,54.8 -67.4,79.7 -93.2,29.1 -31.4,-61.6 95.7,-466.9 95.7,-466.9 0,0 15,-51.1 -7.9,-49.4 -23,1.7 -98.6,331.1 -120.1,357.4 -21.4,26.4 -66.7,30.5 -80.7,-20.6 -16.5,-60.1 100.1,-420.9 100.1,-420.9 0,0 1.1,-29.9 -14.2,-22.1 -15.3,7.8 -99.8,284 -132.3,306 -27.3,18.5 -44.4,-5.7 -44.4,-5.7 -47.6,-43.5 71.8,-300.7 90.1,-434.4 18.3,-133.7 101.7,-275 106,-436.7 0.7,-25.2 56.7,-319.3 52.9,-350.8 l 377.8,189.2"
         style="fill:#f7a491;fill-opacity:1;fill-rule:nonzero;stroke:none"
         id="path48" /><path
         d="m 47293.9,11079.4 c -1.4,23.8 -2.6,44.1 -3.5,59 -6.5,106.7 -33.3,196.2 -58.7,270.1 -25.5,73.9 -68.8,201.2 -60.5,260.7 5.2,37.5 15.5,139.2 20.9,193.5 5.5,54.3 9.7,118.3 16.1,146.7 3.8,17.3 -2.8,56.3 -8.6,84.3 -8.6,41.6 38.6,72.4 73,47.3 32.3,-23.6 45.5,-79.4 53.6,-114.1 22.6,-98.1 0.7,-256.9 15.5,-252.8 14.7,4.1 139.2,245.6 155.2,272.2 16,26.7 162.2,306.6 208.6,351.5 46.4,44.9 81.9,23.5 81.3,-13.6 -0.5,-32 -173.9,-433.7 -173.9,-433.7 0,0 -22,-51.2 6.4,-42.1 28.5,9.1 186.6,373.5 220.3,423.4 33.8,49.9 79.8,67.4 96.8,13.2 20.7,-66 -172,-444.4 -172,-444.4 0,0 -23.4,-47.9 -0.4,-50.1 22.9,-2.2 152.3,310.1 177.8,332.5 25.6,22.4 70.9,18.9 76.2,-33.8 6.2,-62 -168.8,-398.4 -168.8,-398.4 0,0 -6,-29.3 10.4,-24.1 16.3,5.1 145.6,263.4 181.4,279.7 29.9,13.7 42.7,-13 42.7,-13 39.7,-50.8 -120.7,-284.5 -161,-413.4 -40.3,-128.8 -146.1,-254.2 -177.3,-413 -4.8,-24.6 -109,-305.4 -110.4,-337.1 l -341.1,249.5"
         style="fill:#f7a491;fill-opacity:1;fill-rule:nonzero;stroke:none"
         id="path50" /><path
         d="m 44619.3,9815 c 0,0 258.8,272.9 467,-59 0,0 160.3,90 272.8,-70.4 0,0 289.7,87.2 360,-345.9 0,0 149.1,28.1 168.8,-149.1 19.7,-177.2 -70.3,-295.3 -70.3,-295.3 0,0 83.7,-62.8 45.7,-225.8 -32.4,-138.5 -147,-159.6 -147,-159.6 0,0 -30.9,-233.5 -132.2,-303.8 -101.2,-70.3 -239.1,-36.5 -239.1,-36.5 0,0 -36.5,-126.6 -154.7,-115.4 -118.1,11.3 -264.4,123.8 -396.6,73.2 -132.2,-50.7 -475.3,2.8 -475.3,2.8 0,0 -385.4,171.6 -270.1,565.3 0,0 -202.5,182.9 -25.3,402.3 0,0 -129.3,343.1 126.6,545.7 256,202.5 469.7,171.5 469.7,171.5"
         style="fill:#07345a;fill-opacity:1;fill-rule:nonzero;stroke:none"
         id="path52" /><path
         d="m 43990.4,7732.5 660,-90.6 c 0,0 529.1,-13 594.5,-13 65.5,0 480,-2407.5 600,-3313.6 120,-906.1 27.1,-1066.5 27.1,-1066.5 0,0 -836.9,-188.2 -1456,-133.3 -643.7,57 -1368,404.6 -1368,404.6 0,0 550.3,1741.2 659.4,2284.8 109,543.7 283,1927.6 283,1927.6"
         style="fill:#f7cc7f;fill-opacity:1;fill-rule:nonzero;stroke:none"
         id="path54" /><path
         d="m 42390,10649 c 0,0 -42.3,-1795 25.4,-1932.3 98.4,-199.8 1206.6,-1616 1206.6,-1616 0,0 -529.4,-2215.5 -751.9,-2980.6 -22.4,-77 -121.7,-574.7 -121.7,-623.2 0,-107.6 468.4,-244.2 524,-236.1 49.7,7.3 458.4,2114.7 719.3,3146 88.3,349.4 240,679.6 447.4,974.4 l 181.5,257.8 -1392.3,1395.5 c 0,0 -171.6,1553.3 -171.6,1682 0,33.8 -599.1,59.1 -666.7,-67.5"
         style="fill:#07345a;fill-opacity:1;fill-rule:nonzero;stroke:none"
         id="path56" /><path
         d="m 45221,7632.2 1736.2,1769 c 0,0 241.9,1672.9 259.1,1735.9 16.9,61.9 448,95.4 621.8,112.3 55.7,5.4 -29.2,-1781.8 -112.3,-2081.3 -98.2,-354 -1410.5,-1966.5 -1410.5,-1966.5 0,0 -235.2,-873.3 -178.6,-1514 94.2,-1064 347.8,-2527.7 302.3,-2573.6 -282.1,-177.7 -1365.1,-196.8 -1433.6,-86.4 -756.9,1219 215.6,4604.6 215.6,4604.6"
         style="fill:#07345a;fill-opacity:1;fill-rule:nonzero;stroke:none"
         id="path58" /><path
         d="m 44663.1,7962.7 -46.9,-347.5 c 0,0 -104.9,-500.7 30.1,-597.2 135,-96.6 574.1,611.4 574.1,611.4 l -46.4,880.6 -510.9,-547.3"
         style="fill:#f7a491;fill-opacity:1;fill-rule:nonzero;stroke:none"
         id="path60" /><path
         d="m 45189,8224.7 c -111.5,-300.4 -377.1,-485 -565.7,-556.7 l 39.8,294.7 510.9,547.3 15,-285.3"
         style="fill:#f47458;fill-opacity:1;fill-rule:nonzero;stroke:none"
         id="path62" /><path
         d="m 44862,9435.2 c -273.9,94.3 -566,-87.7 -607.8,-370.1 -18.1,-122.7 -34.6,-277.1 -37.7,-445.9 -7.3,-405.9 202.8,-800.9 387.1,-800.9 184.3,0 693.7,262.8 712.2,839 11.4,355.8 -166.3,678.9 -453.8,777.9"
         style="fill:#f7a491;fill-opacity:1;fill-rule:nonzero;stroke:none"
         id="path64" /><path
         d="m 45180,8611.7 c 0,-89.5 59.3,-162.1 132.5,-162.1 73.3,0 132.6,72.6 132.6,162.1 0,89.6 -59.3,162.2 -132.6,162.2 -73.2,0 -132.5,-72.6 -132.5,-162.2"
         style="fill:#f7a491;fill-opacity:1;fill-rule:nonzero;stroke:none"
         id="path66" /><path
         d="m 44063.5,9637.2 c -190.4,-150.8 -257.1,-380 -149,-511.9 108.1,-131.9 350,-116.5 540.4,34.3 190.4,150.9 257.1,380 149,511.9 -108,131.9 -350,116.5 -540.4,-34.3"
         style="fill:#07345a;fill-opacity:1;fill-rule:nonzero;stroke:none"
         id="path68" /><path
         d="m 44561.3,9513.5 c 0,-65.5 79.1,-118.7 176.7,-118.7 97.7,0 176.8,53.2 176.8,118.7 0,65.6 -79.1,118.7 -176.8,118.7 -97.6,0 -176.7,-53.1 -176.7,-118.7"
         style="fill:#07345a;fill-opacity:1;fill-rule:nonzero;stroke:none"
         id="path70" /><path
         d="m 44035.3,9009.1 c 0,-84.3 67.6,-152.6 150.9,-152.6 83.3,0 150.9,68.3 150.9,152.6 0,84.3 -67.6,152.6 -150.9,152.6 -83.3,0 -150.9,-68.3 -150.9,-152.6"
         style="fill:#07345a;fill-opacity:1;fill-rule:nonzero;stroke:none"
         id="path72" /><path
         d="m 44418.2,8331.3 406.8,6.6 c 0,0 -6.8,-154.6 -185.6,-162.7 -218.1,-9.9 -221.2,156.1 -221.2,156.1"
         style="fill:#ffffff;fill-opacity:1;fill-rule:nonzero;stroke:none"
         id="path74" /><path
         d="m 22298.3,9731 c -6.1,12.1 -9.7,18.7 -9.7,18.7 l 0.5,5.1 c -17.8,44.2 -37.3,88.1 -58.8,131.7 -142.2,288.4 -493.9,452 -814.7,452.4 -104.6,0.2 -199.6,-13.7 -287,-39 -131.4,-59.1 -452.5,-263.5 -536,-872.5 -30.4,-221.5 16.6,-432.8 116,-611.4 -86.4,-54.3 -200,-164.4 -282.2,-386.6 -151.1,-408.3 -906.7,-499 -982.2,-1043.4 -75.6,-544.3 710.2,-1527.2 1541.3,-892.1 632.6,483.4 529.8,1404.8 444.6,1817.3 197.3,-27.1 409.4,10.1 613.1,133.3 259.4,156.8 364.6,368.3 392.8,575.4 -6.6,242 -48.4,480.6 -137.7,711.1"
         style="fill:#f7cc7f;fill-opacity:1;fill-rule:nonzero;stroke:none"
         id="path76" /><path
         d="m 21559.7,8308.4 c -515,0 -881.8,466.5 -897.2,486.3 -15.3,19.9 -11.7,48.3 8.1,63.7 19.8,15.3 48.3,11.7 63.6,-8.1 v 0 c 3.5,-4.5 355.5,-451.2 825.5,-451.2 25,0 45.3,-20.3 45.3,-45.3 0,-25.1 -20.3,-45.4 -45.3,-45.4"
         style="fill:#184655;fill-opacity:1;fill-rule:nonzero;stroke:none"
         id="path78" /><path
         d="m 23314.5,4123 c -5.4,4 -10.3,8.5 -14.7,13.7 -140.4,165.1 -1319.3,1552.2 -1353.8,1627.4 -31.1,67.9 -300.1,1444.1 -300.1,1444.1 l 661,-89.3 205.2,-1271.9 c 35.1,-58 721.4,-1107.9 721.4,-1107.9 0,0 120.7,-196 199,-307.1 31.2,-14 61,-26.8 86,-36.8 56.1,-18.6 108.5,-27.2 154,-33 57.3,-7.3 169.7,-36.4 194,-50.2 28.3,-15.9 85.6,-50.7 119.8,-72.1 34.2,-21.4 75.2,-45.1 91.9,-58.6 10.2,-8.2 38.2,-16.6 58.6,-21.9 30.4,-7.8 35.3,-49.2 7.5,-63.8 -26.2,-13.7 -67.5,-4.2 -93.1,1.8 -72.3,17 -170.4,83.5 -172.5,72.4 -2.1,-11.1 117.2,-172.6 129.6,-191.9 12.5,-19.4 150.1,-207.8 164.7,-253.2 14.6,-45.4 -11.2,-62 -35.6,-49.4 -21,10.8 -230.4,257 -230.4,257 0,0 -26.8,31.3 -30,9.5 -3.3,-21.8 186.4,-245.8 208.4,-284.4 22.1,-38.7 18.6,-74.9 -22.9,-68.5 -50.4,7.9 -238.1,259.3 -238.1,259.3 0,0 -24.1,31.2 -33,16.7 -9,-14.5 155.6,-202.3 162.1,-226.6 6.5,-24.3 -10.6,-53.1 -47.2,-39.4 -43.2,16.1 -208.8,242 -208.8,242 0,0 -17.4,13.6 -19.4,1.1 -1.9,-12.5 126.9,-182.7 126.1,-211.7 -0.8,-24.4 -22.6,-24.1 -22.6,-24.1 -46.7,-9.7 -149.1,173.1 -221.2,241.9 -72.2,68.8 -120.7,180 -215.7,252.5 -6,4.6 -20.8,15.5 -30.2,22.4"
         style="fill:#f8a492;fill-opacity:1;fill-rule:nonzero;stroke:none"
         id="path80" /><path
         d="m 20363.2,3625.3 c -3.3,5.9 -5.9,12 -7.8,18.5 -60.2,208.3 -565.5,1957.6 -566.1,2040.3 -0.5,74.7 319.3,1440 319.3,1440 l 566,-353.2 -335.2,-1243.9 c 8.2,-67.3 202.9,-1306.7 202.9,-1306.7 0,0 29.6,-228.2 55.3,-361.8 22.8,-25.5 44.7,-49.5 63.3,-68.9 43.5,-40 87.8,-69.4 126.9,-93.4 49.2,-30.2 139.7,-102.9 156.3,-125.5 19.2,-26.2 57.2,-81.4 79.5,-115 22.4,-33.5 50.1,-72 59.8,-91.2 5.9,-11.6 28,-30.8 44.5,-44 24.4,-19.7 11.9,-59.5 -19.4,-61.3 -29.5,-1.8 -63.3,23.9 -84.1,39.9 -59,45.3 -121.1,146.2 -127.6,136.9 -6.5,-9.2 36,-205.5 39.4,-228.2 3.4,-22.8 51.5,-251.2 46.2,-298.6 -5.4,-47.3 -35.7,-51.9 -52.8,-30.4 -14.7,18.5 -104.5,329.1 -104.5,329.1 0,0 -11.6,39.6 -23.5,21 -11.9,-18.6 69,-300.7 73.3,-345 4.2,-44.4 -13.8,-76 -49,-53 -42.8,27.8 -110.7,334.3 -110.7,334.3 0,0 -9.1,38.3 -23.2,28.7 -14.1,-9.5 58.8,-248.4 54.8,-273.2 -4.1,-24.8 -31.5,-44.1 -59.3,-16.5 -32.7,32.4 -90.9,306.5 -90.9,306.5 0,0 -10.4,19.6 -17.3,8.9 -6.9,-10.6 40.7,-218.7 28,-244.8 -10.6,-21.9 -30.5,-12.7 -30.5,-12.7 -46.5,10.4 -64.8,219.1 -102.3,311.5 -37.6,92.4 -36.2,213.7 -93,318.9 -3.6,6.6 -12.6,22.7 -18.3,32.8"
         style="fill:#f8a492;fill-opacity:1;fill-rule:nonzero;stroke:none"
         id="path82" /><path
         d="m 21205.3,8150.2 c 0,0 -555,35.2 -774.6,-203.7 -219.5,-239 487.1,-2129.6 527,-2433.8 39.9,-304.2 -386.3,-1151.8 -386.3,-1151.8 0,0 1586.2,-473.6 1958.8,-227.4 0,0 -59.7,2437.8 -99.6,2655.1 -40,217.2 -372.7,1100.8 -452.5,1187.7 -79.8,87 -772.8,173.9 -772.8,173.9"
         style="fill:#184655;fill-opacity:1;fill-rule:nonzero;stroke:none"
         id="path84" /><path
         d="m 20550.8,6129.8 c 0,0 467.1,927.3 517.1,1241.8 50.1,314.5 -225.4,703.7 -506.5,673.6 -281.2,-30.1 -668.1,-1463.5 -668.1,-1463.5 l 657.5,-451.9"
         style="fill:#f47458;fill-opacity:1;fill-rule:nonzero;stroke:none"
         id="path86" /><path
         d="m 21307.9,8919.4 c 0,0 -3,-16.8 -8.4,-45.4 -26.2,-137.1 -126.8,-592 -194.8,-717 -82.2,-151.2 281.3,-633.2 631.1,-574.3 104.2,17.5 -88,442.8 -78.8,487.9 17.7,86.2 41.7,203.9 66.2,324.6 13.9,68 27.9,137 41,201.9 37.4,184.3 68,335 68,335 l -524.3,-12.7"
         style="fill:#f7a491;fill-opacity:1;fill-rule:nonzero;stroke:none"
         id="path88" /><path
         d="m 21299.5,8874 c 5.4,28.6 8.4,45.4 8.4,45.4 l 524.3,12.7 c 0,0 -30.6,-150.7 -68,-335 -13.1,-64.5 -27,-133.1 -40.8,-200.8 -80.9,11.6 -165.5,49.9 -250.3,122.1 -92.4,78.7 -153,173.3 -189.6,274.4 6.5,32.2 11.9,60 16,81.2"
         style="fill:#f47458;fill-opacity:1;fill-rule:nonzero;stroke:none"
         id="path90" /><path
         d="m 21660.8,10078.8 c 0,0 -247.1,27.8 -402,-167.1 -154.9,-194.9 -321.8,-797.7 62.9,-1125.4 384.8,-327.7 764.9,43.3 821.3,436.6 56.4,393.3 78.3,870.1 -482.2,855.9"
         style="fill:#f7a491;fill-opacity:1;fill-rule:nonzero;stroke:none"
         id="path92" /><path
         d="m 22256.8,9228.7 c -45.9,-86.9 -123,-135 -172.2,-107.5 -49.1,27.6 -51.7,120.3 -5.8,207.2 45.9,86.8 123,134.9 172.2,107.4 49.1,-27.5 51.8,-120.3 5.8,-207.1"
         style="fill:#f7a491;fill-opacity:1;fill-rule:nonzero;stroke:none"
         id="path94" /><path
         d="m 21688.4,10143.3 c 0,0 -330.1,-573.2 -566.3,-599.7 -236.1,-26.5 -267.1,-331.1 -267.1,-331.1 0,0 84.4,701.8 318.2,837.2 233.8,135.3 515.2,93.6 515.2,93.6"
         style="fill:#f7cc7f;fill-opacity:1;fill-rule:nonzero;stroke:none"
         id="path96" /><path
         d="m 21184.1,9399.6 c 19.2,-101.8 -19.4,-195.2 -86.3,-208.5 -66.9,-13.4 -136.6,58.3 -155.8,160.1 -19.2,101.8 19.4,195.1 86.2,208.5 66.9,13.3 136.7,-58.3 155.9,-160.1"
         style="fill:#f7a491;fill-opacity:1;fill-rule:nonzero;stroke:none"
         id="path98" /><path
         d="m 21467.6,9060.4 351.6,-75.2 c 0,0 -36.6,-131.9 -192.2,-103.3 -189.7,34.8 -159.4,178.5 -159.4,178.5"
         style="fill:#ffffff;fill-opacity:1;fill-rule:nonzero;stroke:none"
         id="path100" /><path
         d="m 15153.9,8415.4 c 0,0 794.8,-84.1 1005.6,-306.4 L 15754,6057.3 c -30.7,-155.3 -44.3,-313.6 -40.4,-471.8 10.4,-428.8 27.1,-1319.9 -6.3,-1609.7 -92.6,-802.5 -2176.2,-31.8 -2484.8,74.4 0,0 463.3,3572.7 780.3,4122.6 105.6,183.3 587.3,190.7 587.3,190.7 l 563.8,51.9"
         style="fill:#f47458;fill-opacity:1;fill-rule:nonzero;stroke:none"
         id="path102" /><path
         d="m 11396.2,9578.6 c 29.3,62.1 290.7,-121.6 348.6,-86.6 57.9,34.9 -234.1,329.3 -204.3,380.7 54.9,94.8 339.6,-302.7 367.6,-260.7 28,42 -245.4,466.4 -147.8,489.8 97.7,23.3 237.7,-469.7 287.8,-438 50.1,31.8 -171.4,446.8 -76.9,531.4 50.5,45.2 288.7,-757.3 375.1,-790.7 86.3,-33.3 183.6,317.1 265,303.3 81.3,-13.8 -266.7,-644.5 -249.7,-693.7 17,-49.1 335.7,-1078.8 523.8,-1389.8 113.2,54.1 223.5,108.6 328.6,161.6 42.2,-238.8 139.7,-447.4 195.2,-681.8 -365,-160.4 -783.5,-319.5 -889.5,-280.5 -322.7,118.8 -481.9,1685.6 -533.7,1977.9 -51.9,292.6 -189.9,349.9 -268.5,503.6 -78.6,153.6 -350.6,211.4 -321.3,273.5"
         style="fill:#f48c7f;fill-opacity:1;fill-rule:nonzero;stroke:none"
         id="path104" /><path
         d="m 14133.9,8277.4 462.9,-563.1 c 0,0 -672.5,-453.3 -1277.8,-719.3 -55.5,234.4 -192.4,601.9 -234.6,840.7 500,252.5 1049.5,441.7 1049.5,441.7"
         style="fill:#f47458;fill-opacity:1;fill-rule:nonzero;stroke:none"
         id="path106" /><path
         d="m 18473.1,9636.3 c -29.3,62 -290.6,-121.6 -348.6,-86.7 -57.9,35 234.1,329.4 204.3,380.8 -54.8,94.8 -339.6,-302.7 -367.6,-260.7 -28,42 245.4,466.4 147.8,489.8 -97.7,23.3 -237.6,-469.7 -287.8,-438 -50.1,31.8 171.5,446.8 77,531.4 -50.6,45.2 -288.7,-757.3 -375.1,-790.7 -86.4,-33.4 -183.7,317.1 -265,303.3 -81.4,-13.8 266.6,-644.5 249.6,-693.7 -17,-49.1 -335.7,-1078.8 -523.8,-1389.8 -113.2,54.1 -223.4,108.6 -328.5,161.6 -42.3,-238.8 -155.5,-465 -211,-699.4 365,-160.4 799.2,-301.9 905.2,-262.9 322.7,118.8 481.9,1685.6 533.8,1977.9 51.9,292.6 189.8,349.9 268.4,503.6 78.6,153.6 350.6,211.4 321.3,273.5"
         style="fill:#f48c7f;fill-opacity:1;fill-rule:nonzero;stroke:none"
         id="path108" /><path
         d="m 15664.1,8325.6 -84.8,-1272.5 c 0,0 327.3,265.6 932.6,-0.4 55.5,234.4 192.3,601.9 234.6,840.7 -500.1,252.5 -1082.4,432.2 -1082.4,432.2"
         style="fill:#f47458;fill-opacity:1;fill-rule:nonzero;stroke:none"
         id="path110" /><path
         d="m 15166.2,9149.7 112.7,-751.8 c 0,0 -411.6,-895.1 -657.4,-817.4 -206.2,65.1 -79.3,857.1 -79.3,857.1 0,0 112.4,425.3 78.6,638.2 -33.7,212.8 545.4,73.9 545.4,73.9"
         style="fill:#f7a491;fill-opacity:1;fill-rule:nonzero;stroke:none"
         id="path112" /><path
         d="m 14620.8,9075.8 c -33.7,212.8 545.4,73.9 545.4,73.9 l 9.3,-62.3 c -16.9,-41.7 -37.6,-77.4 -62.8,-104.8 -129.3,-140.9 -331.5,-225.5 -506.3,-231.8 17.5,114.7 28.3,237.7 14.4,325"
         style="fill:#f47458;fill-opacity:1;fill-rule:nonzero;stroke:none"
         id="path114" /><path
         d="m 15261.2,10213.3 c 16.4,6 131.2,-856.2 -86.7,-1093.5 -217.9,-237.2 -642.4,-314.9 -794.7,-128 -168.4,206.6 -159.9,1133.3 178.8,1377.4 338.8,244 702.6,-155.9 702.6,-155.9"
         style="fill:#f7a491;fill-opacity:1;fill-rule:nonzero;stroke:none"
         id="path116" /><path
         d="m 14687.6,10830.4 c 261.8,-54 431.4,-215.9 493.7,-284.9 118.9,-14.2 280.5,-80.7 447.4,-360.3 205.2,-343.7 53.6,-724.6 -185.2,-911.4 -238.9,-186.9 -236.2,-403.8 -236.2,-403.8 l -37.1,112.7 c -27.9,84.6 -39.2,174.3 -29.9,263 5.6,53.2 16.9,110.8 38.6,158.1 57.5,124.8 -123.4,207.7 -174.1,311.5 -39,80 -40.9,262.8 -102.4,395 l -73.5,100.9 c 0,0 -169.5,133.4 -335.3,95.7 -165.8,-37.6 -142,592.8 194,523.5"
         style="fill:#13375b;fill-opacity:1;fill-rule:nonzero;stroke:none"
         id="path118" /><path
         d="m 15016,9561.9 c -1.8,-105.2 45.5,-191.3 105.5,-192.4 60.1,-1 110.1,83.4 111.8,188.6 1.8,105.2 -45.5,191.3 -105.5,192.4 -60,1 -110.1,-83.4 -111.8,-188.6"
         style="fill:#f7a491;fill-opacity:1;fill-rule:nonzero;stroke:none"
         id="path120" /><path
         d="m 14390.3,9286.5 284.5,-58.9 c 0,0 -29,-106.7 -154.8,-84.4 -153.5,27.2 -129.7,143.3 -129.7,143.3"
         style="fill:#ffffff;fill-opacity:1;fill-rule:nonzero;stroke:none"
         id="path122" /><path
         d="m 10441.8,7086.1 39.4,-35.4 c 20.3,-18.2 50.8,-17.4 68.1,1.7 l 699.2,771.2 c 17.3,19.1 15,49.4 -5.3,67.6 l -39.4,35.4 c -20.3,18.2 -50.8,17.4 -68.1,-1.7 l -699.1,-771.2 c -17.4,-19.1 -15,-49.4 5.2,-67.6"
         style="fill:#13375b;fill-opacity:1;fill-rule:nonzero;stroke:none"
         id="path124" /><path
         d="m 8071.66,7712.6 c 93.44,76.2 816.06,-242 806.9,-352.7 -9.17,-110.8 504.24,-1184.5 504.24,-1184.5 l 887.2,709.9 0.4,-0.3 c 7.8,25.7 91.9,301.8 96,351.2 4.3,51.8 154.2,142.4 223.9,129.1 69.6,-13.4 -59.6,-101 -68.1,-117.1 -23,-43.8 66.2,-60.2 66.2,-60.2 0,0 256.4,141.1 261.8,224.2 5.5,83 58.4,257 113.8,220.6 28.5,-18.8 28.3,-142.3 19.3,-200.8 16.5,66.5 39.8,141.6 62.5,149 41.5,13.6 62.1,-39.3 54.6,-65.3 -7.5,-26 -74.5,-308.4 -94.8,-340.1 -19.9,-31.1 -433.9,-365.7 -493.6,-438.4 0,0 -1147.54,-1316.3 -1229.26,-1350.8 -71.68,-30.2 -327.31,423.5 -568.82,724.6 -241.52,301.2 -934.26,1363.4 -642.26,1601.6"
         style="fill:#f7a491;fill-opacity:1;fill-rule:nonzero;stroke:none"
         id="path126" /><path
         d="m 9162.39,6830.1 -857.61,-87.8 c 0,0 -39.34,705.4 -39.34,1041.9 0,408.3 34.65,934.2 83.79,922.9 137.91,-31.8 323.64,-108.2 434.21,-260.6 382.61,-527.5 378.95,-1616.4 378.95,-1616.4"
         style="fill:#13375b;fill-opacity:1;fill-rule:nonzero;stroke:none"
         id="path128" /><path
         d="m 8741.07,7856.3 c 17.97,-124.5 347.65,-3508.6 347.65,-3508.6 -1561.54,-756.8 -2423.19,-134.8 -2423.19,-134.8 0,0 51.09,2376.3 -10.15,2699.8 -40.52,214 -91.03,1636 47.17,1675.8 177.35,51.1 380.7,105.4 602.35,128.5 189.2,19.7 924.17,31.1 1055.67,-13.2 0,0 304.96,-324.1 380.5,-847.5"
         style="fill:#466eb6;fill-opacity:1;fill-rule:nonzero;stroke:none"
         id="path130" /><path
         d="m 9282.74,5386.4 c 3.53,1.5 16.24,11.5 23.56,17.6 -27.76,331.5 -22.76,652.8 80.95,761.4 -2.49,5.2 -25.17,53.6 -48.83,103.7 -120.19,-93.3 -177.29,-341.1 -154.88,-743.3 1.55,-27.7 9.47,-48.8 15.85,-83.3 34.81,-38.4 66.44,-63.2 83.35,-56.1"
         style="fill:#f7a491;fill-opacity:1;fill-rule:nonzero;stroke:none"
         id="path132" /><path
         d="m 5118.96,4311.8 c -0.97,7.3 -1.1,14.6 -0.39,21.8 23.01,234.4 216.93,2202.3 249.59,2286 29.48,75.5 899.22,1323.7 899.22,1323.7 l 427.48,-584.4 -836.44,-1119.5 c -18.76,-71.2 -320.53,-1399.6 -320.53,-1399.6 0,0 -61.85,-242.2 -89.57,-387.2 12.64,-35 25.03,-68 36.03,-95.1 27.72,-57.8 60.41,-105.3 90.12,-145.3 37.4,-50.3 99.2,-160.1 106.82,-189.5 8.86,-34.2 24.82,-105.2 33.87,-148.1 9.04,-42.9 21.42,-92.8 23.5,-116 1.26,-14.2 15.82,-42.4 27.02,-62.4 16.69,-29.7 -11.79,-64.8 -44.04,-54 -30.4,10.1 -54.06,49.6 -68.64,74.2 -41.15,69.4 -63.11,196.2 -73.34,189.5 -10.24,-6.7 -46.3,-221.8 -52,-246.1 -5.71,-24.3 -48.98,-274.1 -73.39,-319.7 -24.41,-45.6 -56.72,-38 -65.3,-9.4 -7.37,24.6 26.96,374 26.96,374 0,0 4.28,44.6 -15.17,30.6 -19.46,-13.9 -51.25,-331.1 -64.78,-377.5 -13.54,-46.4 -44.37,-71 -70.55,-33.7 -31.83,45.4 22.91,381.8 22.91,381.8 0,0 6.13,42.3 -11.88,38.4 -18,-4 -40.55,-274.3 -54.57,-297.7 -14.01,-23.3 -49.38,-31.7 -66.24,7.2 -19.86,45.9 31.59,345.9 31.59,345.9 0,0 -2.53,23.8 -13.76,15.9 -11.23,-7.9 -46.88,-237 -70.11,-258.2 -19.5,-17.8 -35.76,-0.5 -35.76,-0.5 -42.63,29.2 22.73,247 22.08,355.4 -0.65,108.3 49.44,230.1 34.5,359.1 -0.94,8.1 -3.57,27.9 -5.23,40.4"
         style="fill:#f8a492;fill-opacity:1;fill-rule:nonzero;stroke:none"
         id="path134" /><path
         d="m 5587.89,7152.8 742.94,-500.5 c 0,0 418.73,625.2 643.51,847.8 281.57,278.8 -102.57,1133 -283.99,1084.7 -405.79,-108.1 -1102.46,-1432 -1102.46,-1432"
         style="fill:#466eb6;fill-opacity:1;fill-rule:nonzero;stroke:none"
         id="path136" /><path
         d="m 7359.5,9448.6 -111.12,-734.9 c 0,0 405.82,-875.1 648.08,-799.2 203.28,63.7 78.23,838 78.23,838 0,0 -110.8,415.8 -77.58,623.8 33.23,208.1 -537.61,72.3 -537.61,72.3"
         style="fill:#f7a491;fill-opacity:1;fill-rule:nonzero;stroke:none"
         id="path138" /><path
         d="m 7897.11,9376.3 c 33.23,208.1 -537.61,72.3 -537.61,72.3 l -9.21,-61 c 16.7,-40.7 37.11,-75.6 61.9,-102.4 127.51,-137.7 326.81,-220.4 499.13,-226.6 -17.24,112.2 -27.83,232.4 -14.21,317.7"
         style="fill:#f47458;fill-opacity:1;fill-rule:nonzero;stroke:none"
         id="path140" /><path
         d="m 7856.42,9613.9 323.76,16.8 c 0,0 -1.09,-123.8 -143.26,-135.3 -173.35,-14 -180.5,118.5 -180.5,118.5"
         style="fill:#ffffff;fill-opacity:1;fill-rule:nonzero;stroke:none"
         id="path142" /><path
         d="m 27956.7,9700.1 c 385.2,457.4 1062.9,542 1390.7,6.1 73.7,-120.6 150.9,-321 166.9,-461.4 43.4,-379.6 -99.2,-728.8 -44.7,-1104.9 -111.2,-11.3 -240.1,-15.7 -385,-7.1 l -24,250.6 -86.6,-241.7 c -413.9,42 -943.5,191.4 -1560.1,572.5 136,398 337.4,741.8 542.8,985.9"
         style="fill:#184655;fill-opacity:1;fill-rule:nonzero;stroke:none"
         id="path144" /><path
         d="m 29822.9,6917.7 c 0,0 938.2,-1168.5 1155.7,-1443.4 217.6,-275 1160,-1129.7 1197.7,-1161.8 37.7,-32 661.4,106 655.1,26.3 -6.3,-79.8 -322.7,-54.1 -313.7,-145 9,-90.9 632,-576.1 582.8,-607.9 -92,-59.5 -392.5,282.4 -430.3,246.6 -37.7,-35.9 346.4,-328.1 305.2,-410.7 -41.2,-82.6 -338.1,310.4 -379.6,298.4 -41.6,-12.1 230.2,-406.7 138.4,-426.1 -49.9,-10.6 -233.3,356.7 -275.5,314.6 -42.2,-42 54.8,-344.3 -3.9,-350.9 -58.7,-6.6 -47.4,264 -159.4,387.4 -112,123.4 -129.8,269.9 -364.7,414.5 -234.8,144.6 -1265.3,624.1 -1632.9,1057.1 -367.6,433.1 -1043.8,1295.9 -1043.8,1295.9 l 568.9,505"
         style="fill:#f7a491;fill-opacity:1;fill-rule:nonzero;stroke:none"
         id="path146" /><path
         d="m 27718.8,8194.2 c 0,0 -669.7,1340.6 -828.7,1653.1 -158.9,312.5 -541.7,1525.9 -555.1,1573.5 -13.4,47.6 372.6,556.6 297.5,584.2 -75.1,27.6 -183.9,-270.6 -262.7,-224.4 -78.8,46.2 -259.5,814.9 -308.9,783.5 -92.5,-58.8 92.6,-474.7 44.3,-494 -48.4,-19.3 -153.5,451.8 -245.7,448.8 -92.2,-2.9 140.8,-436.8 112.5,-469.5 -28.3,-32.7 -273.2,379 -329.3,303.7 -30.4,-40.9 226.6,-360.9 170.8,-381.7 -55.8,-20.8 -289.9,193.6 -320.5,143 -30.5,-50.5 220.1,-153.3 285.4,-306.6 65.4,-153.3 191,-230.7 224.3,-504.5 33.3,-273.8 38.4,-1410.4 278.3,-1925.3 239.9,-514.9 741.3,-1489.6 741.3,-1489.6 l 696.5,305.8"
         style="fill:#f7a491;fill-opacity:1;fill-rule:nonzero;stroke:none"
         id="path148" /><path
         d="m 27287.9,7096.2 c 0,0 -333.3,798.2 -386.6,930.8 0,0 465.4,417.9 743.2,385.3 0,0 359.9,-570.1 572.1,-590.6 212.2,-20.6 958.7,-52.6 1089.6,-131.1 130.8,-78.5 686.1,-921.6 686.1,-921.6 0,0 -499,-503.9 -699.7,-502.9 0,0 -136.4,340.3 -183,278.3 -46.7,-62 6.8,-1741 -86.3,-1841.7 -86.2,-93.2 -1485.7,-208.6 -1676.5,-31.4 0,0 -14.1,71.7 -121.9,1682.6 -22.7,339.2 63,742.3 63,742.3"
         style="fill:#f7cc7f;fill-opacity:1;fill-rule:nonzero;stroke:none"
         id="path150" /><path
         d="m 28627,8521.7 c 0,0 -80.5,-416.1 -64.4,-580.3 16.1,-164.1 -61.3,-693.2 -408.8,-694.9 -347.5,-1.8 -66,672.6 -33.2,833.5 32.7,160.8 40.4,658.8 40.4,658.8 l 466,-217.1"
         style="fill:#f7a491;fill-opacity:1;fill-rule:nonzero;stroke:none"
         id="path152" /><path
         d="m 28153.8,8488.9 c 5.5,136.2 7.2,249.9 7.2,249.9 l 466,-217.1 c 0,0 -16.5,-85.1 -33,-193.5 -204,-41 -351.8,34.5 -440.2,160.7"
         style="fill:#f47458;fill-opacity:1;fill-rule:nonzero;stroke:none"
         id="path154" /><path
         d="m 28831.3,9717.5 c 0,0 216.9,-70.8 269.5,-296.8 52.5,-226.1 -45,-805.7 -494.4,-938.8 -449.5,-133.2 -620.7,329.6 -513.2,687.7 107.4,358.1 276.4,774.5 738.1,547.9"
         style="fill:#f7a491;fill-opacity:1;fill-rule:nonzero;stroke:none"
         id="path156" /><path
         d="m 28833.6,9783.2 c 0,0 50.1,-616.8 236.5,-729.8 186.5,-113 92.7,-385.5 92.7,-385.5 0,0 205.2,632.8 63.5,838.1 -141.7,205.2 -392.7,277.2 -392.7,277.2"
         style="fill:#184655;fill-opacity:1;fill-rule:nonzero;stroke:none"
         id="path158" /><path
         d="m 28961.9,8953.9 c -56,-79.8 -60.4,-174.4 -9.9,-211.4 50.5,-37 136.8,-2.4 192.7,77.4 56,79.7 60.5,174.3 10,211.4 -50.5,37 -136.8,2.3 -192.8,-77.4"
         style="fill:#f7a491;fill-opacity:1;fill-rule:nonzero;stroke:none"
         id="path160" /><path
         d="m 28266.8,8892.6 323.7,-128.7 c 0,0 -56.4,-120.1 -200.4,-67.6 -175.5,64 -123.3,196.3 -123.3,196.3"
         style="fill:#ffffff;fill-opacity:1;fill-rule:nonzero;stroke:none"
         id="path162" /><path
         d="m 38115.6,7278.9 c 0,0 726.9,1200.2 899,1479.8 172.1,279.6 621.6,1383.1 637.6,1426.6 16.1,43.4 -305.4,548.4 -233.2,568.4 72.2,19.9 151.1,-266.9 228.1,-229.8 77.1,37 304.1,740.9 347.8,707.8 81.9,-62 -122.5,-436.1 -78.8,-457.8 43.6,-21.8 177.5,410 263.4,400.2 85.8,-9.8 -164.6,-397.1 -140.7,-429.8 23.9,-32.7 283.8,332.9 330.4,258.3 25.3,-40.6 -238.9,-319.6 -188.4,-343.3 50.5,-23.7 285.3,158.5 310,108.9 24.6,-49.6 -217.1,-126.3 -289.7,-264.4 -72.7,-138.1 -195.8,-200.7 -247.7,-453.8 -51.8,-253.1 -142.9,-1314 -406,-1776.3 -263,-462.4 -805,-1334 -805,-1334 l -626.8,339.2"
         style="fill:#f7a491;fill-opacity:1;fill-rule:nonzero;stroke:none"
         id="path164" /><path
         d="m 34712.5,9932.7 c 118.7,-316.1 -69,-551.8 -199.6,-863.1 -87.6,-208.9 105.6,-540.8 324.1,-693.6 553.3,-387.2 683.1,-397.2 643.1,-923 -96.4,-1266.6 1405.7,-726.7 1647.3,-686.4 241.6,40.3 423.9,29.3 539.3,109.9 347.9,242.7 674.4,971.7 613.2,1585.7 -61.1,614 -786.4,403 -952.3,684.9 -165.9,281.9 335.4,633 -91.8,1103.8 -1226.8,1352.1 -2507.4,445.3 -2553.1,-71.8 -8.5,-96 3.9,-177.4 29.8,-246.4"
         style="fill:#0e2e35;fill-opacity:1;fill-rule:nonzero;stroke:none"
         id="path166" /><path
         d="m 36204.8,6931.5 c 0,0 -1471.2,-36.7 -1794.2,-63.2 -323,-26.5 -1495,71.1 -1540.4,76.3 -45.4,5.3 -345.6,513.8 -395.5,459.2 -49.9,-54.6 167,-252.1 99.9,-303.4 -67.1,-51.2 -787.9,63.5 -778.4,10.2 17.9,-99.7 438.5,-87 438.1,-135.1 -0.5,-48.1 -440.2,27 -470,-52.9 -29.8,-79.9 423,-32.6 441.1,-68.3 18,-35.6 -420,-100.9 -375.2,-175.3 24.3,-40.3 388.1,67.5 386.3,12.4 -1.7,-55 -267.1,-180.2 -234.6,-224 32.6,-43.8 208.3,134.5 362.3,136.7 154,2.2 264.3,82.6 510.1,15.1 245.8,-67.4 1088.7,-304.3 1608.2,-380.4 531.3,-77.8 1765.7,-135 1765.7,-135 l -23.4,827.7"
         style="fill:#f7a491;fill-opacity:1;fill-rule:nonzero;stroke:none"
         id="path168" /><path
         d="m 38530.9,5284.6 c 73.8,782.3 -98.2,934.2 -109.1,1014.7 73.4,252 341.2,625.7 397.3,731.3 0,0 -363.2,411.6 -632.6,408.1 0,0 -286.6,-361.9 -499.2,-472.8 -3.2,0.8 -75.3,-32.1 -107,-31.9 -205.4,1.4 -922.9,23.2 -1056.9,-16.8 l -161.1,-1115.5 c 38.6,-63.5 85.4,-1338.5 164.8,-1443.4 79.4,-104.9 1471.4,-575.9 1662.9,-452.7 7.6,4.8 294.7,888.9 340.9,1379"
         style="fill:#f7a491;fill-opacity:1;fill-rule:nonzero;stroke:none"
         id="path170" /><path
         d="m 36897.2,6891.5 c -132.4,63.2 -1099.3,61.2 -1099.3,61.2 0,0 -128.1,-755 -20,-915.3 0,0 696,-258.2 671.7,-328.5 l 447.6,1182.6"
         style="fill:#50bfa5;fill-opacity:1;fill-rule:nonzero;stroke:none"
         id="path172" /><path
         d="m 38323.1,4332.1 c 84.5,295.8 182.4,683.4 207.8,952.5 73.8,782.3 -98.2,934.2 -109.1,1014.7 73.4,252 341.2,625.7 397.3,731.3 0,0 -363.2,411.6 -632.6,408.1 0,0 -286.6,-361.8 -499.2,-472.8 -3.2,0.8 -75.3,-32.1 -107,-31.9 -205.4,1.4 -922.9,23.2 -1056.9,-16.8 l -161.1,-1115.5 c 26.5,-43.6 56.9,-658.5 99,-1073.5 222.8,-104.5 847.1,-350.7 1861.8,-396.1"
         style="fill:#50bfa5;fill-opacity:1;fill-rule:nonzero;stroke:none"
         id="path174" /><path
         d="m 37112.2,7342.3 c 0,0 74.4,-384.6 59.5,-536.4 -14.9,-151.7 56.7,-640.7 377.9,-642.3 321.1,-1.6 60.9,621.7 30.7,770.4 -30.3,148.7 -37.4,608.9 -37.4,608.9 l -430.7,-200.6"
         style="fill:#f7a491;fill-opacity:1;fill-rule:nonzero;stroke:none"
         id="path176" /><path
         d="m 37549.5,7312 c -5,125.9 -6.6,230.9 -6.6,230.9 l -430.7,-200.6 c 0,0 15.2,-78.6 30.5,-178.8 188.5,-37.9 325.1,31.9 406.8,148.5"
         style="fill:#f47458;fill-opacity:1;fill-rule:nonzero;stroke:none"
         id="path178" /><path
         d="m 36954.8,8403.9 c 0,0 -166,-92 -226.7,-291.6 -60.6,-199.5 8.4,-714.4 437.1,-838.7 428.7,-124.2 614.4,283.5 526.1,602.3 -88.2,318.7 -280.3,722.4 -736.5,528"
         style="fill:#f7a491;fill-opacity:1;fill-rule:nonzero;stroke:none"
         id="path180" /><path
         d="m 37745,7999.4 c -8.4,-85.6 -55.7,-151 -105.5,-146.1 -49.9,4.8 -83.5,78.2 -75.1,163.8 8.4,85.7 55.6,151.1 105.5,146.2 49.8,-4.9 83.5,-78.3 75.1,-163.9"
         style="fill:#f7a491;fill-opacity:1;fill-rule:nonzero;stroke:none"
         id="path182" /><path
         d="m 37005,8430 c 0,0 -77.7,-574.5 -263.4,-678.1 -185.7,-103.7 -108,-358.5 -108,-358.5 0,0 -168.4,591.7 -21.6,781.7 146.9,190.1 393,254.9 393,254.9"
         style="fill:#0e2e35;fill-opacity:1;fill-rule:nonzero;stroke:none"
         id="path184" /><path
         d="m 36851.6,7669.4 c 50.3,-74.8 50.2,-163.1 -0.4,-197.1 -50.6,-34 -132.4,-1 -182.8,73.9 -50.4,74.8 -50.2,163.1 0.4,197.1 50.6,34.1 132.4,1 182.8,-73.9"
         style="fill:#f7a491;fill-opacity:1;fill-rule:nonzero;stroke:none"
         id="path186" /><path
         d="m 37166.6,7583.5 342.6,116.6 c 0,0 37.1,-135.2 -112,-190.9 -181.8,-67.9 -230.6,74.3 -230.6,74.3"
         style="fill:#ffffff;fill-opacity:1;fill-rule:nonzero;stroke:none"
         id="path188" /><path
         d="M 47991.3,2599.8 H 4430.39 v 111.6 H 47991.3 v -111.6"
         style="fill:#0e2e35;fill-opacity:1;fill-rule:nonzero;stroke:none"
         id="path190" /><path
         d="m 14503.6,12097.9 c 0,-697.1 -791.9,-1262.2 -1768.8,-1262.2 -976.9,0 -1768.7,565.1 -1768.7,1262.2 0,697.1 791.8,1262.2 1768.7,1262.2 976.9,0 1768.8,-565.1 1768.8,-1262.2"
         style="fill:#f7cc7f;fill-opacity:1;fill-rule:nonzero;stroke:none"
         id="path192" /><path
         d="m 24177.2,12596 c 0,-903.9 -1026.9,-1636.7 -2293.6,-1636.7 -1266.8,0 -2293.7,732.8 -2293.7,1636.7 0,904 1026.9,1636.8 2293.7,1636.8 1266.7,0 2293.6,-732.8 2293.6,-1636.8"
         style="fill:#f47458;fill-opacity:1;fill-rule:nonzero;stroke:none"
         id="path194" /><path
         d="m 7074.28,12354.6 c 0,-903.9 -1026.91,-1636.7 -2293.66,-1636.7 -1266.75,0 -2293.66,732.8 -2293.66,1636.7 0,904 1026.91,1636.8 2293.66,1636.8 1266.75,0 2293.66,-732.8 2293.66,-1636.8"
         style="fill:#86b1f2;fill-opacity:1;fill-rule:nonzero;stroke:none"
         id="path196" /><path
         d="m 32446,11485.9 c 0,-711.8 -808.7,-1288.8 -1806.2,-1288.8 -997.6,0 -1806.2,577 -1806.2,1288.8 0,711.9 808.6,1288.9 1806.2,1288.9 997.5,0 1806.2,-577 1806.2,-1288.9"
         style="fill:#96d9c9;fill-opacity:1;fill-rule:nonzero;stroke:none"
         id="path198" /><path
         d="m 39822.9,12619.3 c 0,-818.4 -929.7,-1481.9 -2076.6,-1481.9 -1146.9,0 -2076.7,663.5 -2076.7,1481.9 0,818.4 929.8,1481.9 2076.7,1481.9 1146.9,0 2076.6,-663.5 2076.6,-1481.9"
         style="fill:#94dcf0;fill-opacity:1;fill-rule:nonzero;stroke:none"
         id="path200" /><path
         d="m 46885.6,12240.7 c 0,-707.7 -804,-1281.4 -1795.7,-1281.4 -991.8,0 -1795.8,573.7 -1795.8,1281.4 0,707.8 804,1281.5 1795.8,1281.5 991.7,0 1795.7,-573.7 1795.7,-1281.5"
         style="fill:#81b4da;fill-opacity:1;fill-rule:nonzero;stroke:none"
         id="path202" /><path
         d="m 6267.54,11301.3 541.12,-408.3 -333.28,801.7 z"
         style="fill:#86b1f2;fill-opacity:1;fill-rule:nonzero;stroke:none"
         id="path204" /><path
         d="m 13927.9,10555.3 -656.9,738.5 489.9,152.2 z"
         style="fill:#f7cc7f;fill-opacity:1;fill-rule:nonzero;stroke:none"
         id="path206" /><path
         d="m 22352.8,10338.9 905.6,1259.3 H 22724 Z"
         style="fill:#f47458;fill-opacity:1;fill-rule:nonzero;stroke:none"
         id="path208" /><path
         d="m 30072.6,10692.6 -415.7,-757.1 772,564.1 z"
         style="fill:#96d9c9;fill-opacity:1;fill-rule:nonzero;stroke:none"
         id="path210" /><path
         d="m 37112.2,11598.2 -223,-638.9 521.1,460.7 z"
         style="fill:#94dcf0;fill-opacity:1;fill-rule:nonzero;stroke:none"
         id="path212" /><path
         d="m 44621.6,11485.9 277.3,-1048.7 290.1,1048.7 z"
         style="fill:#81b4da;fill-opacity:1;fill-rule:nonzero;stroke:none"
         id="path214" /><path
         d="m 3408.14,11954.4 v 782.5 h 100.67 v -335.5 h 284.82 v 335.5 h 100.02 v -782.5 h -100.02 v 372.5 h -284.82 v -372.5 h -100.67"
         style="fill:#ffffff;fill-opacity:1;fill-rule:nonzero;stroke:none"
         id="path216" /><path
         d="m 4069.82,11954.4 v 782.5 h 441.13 v -73 h -340.46 v -268.8 h 249.72 v -71.9 h -249.72 v -296.4 h 352.37 v -72.4 h -453.04"
         style="fill:#ffffff;fill-opacity:1;fill-rule:nonzero;stroke:none"
         id="path218" /><path
         d="m 4640.76,11954.4 v 782.5 h 102.02 v -708 h 307.99 v -74.5 h -410.01"
         style="fill:#ffffff;fill-opacity:1;fill-rule:nonzero;stroke:none"
         id="path220" /><path
         d="m 5158.73,11954.4 v 782.5 h 102.02 v -708 h 307.99 v -74.5 h -410.01"
         style="fill:#ffffff;fill-opacity:1;fill-rule:nonzero;stroke:none"
         id="path222" /><path
         d="m 5885.34,12679.3 c -56.52,0 -98.04,-25.4 -124.53,-76.1 -26.49,-50.7 -39.73,-130.3 -39.73,-238.8 0,-124.3 12.92,-214 38.75,-268.9 25.84,-54.9 67.65,-82.4 125.51,-82.4 56.51,0 97.91,26.4 124.18,79.2 26.28,52.9 39.42,137.4 39.42,253.6 0,115.5 -13.14,200 -39.42,253.3 -26.27,53.4 -67.67,80.1 -124.18,80.1 z m 0,-740.2 c -89.2,0 -156.53,34.4 -202.01,103.3 -45.48,68.9 -68.23,170 -68.23,303.5 0,133.9 22.75,234.9 68.23,303.3 45.48,68.3 112.81,102.5 202.01,102.5 88.76,0 156.09,-34.3 202.03,-102.8 45.92,-68.5 68.87,-169.5 68.87,-303 0,-133.5 -22.95,-234.6 -68.87,-303.5 -45.94,-68.9 -113.27,-103.3 -202.03,-103.3"
         style="fill:#ffffff;fill-opacity:1;fill-rule:nonzero;stroke:none"
         id="path224" /><path
         d="m 11744.7,11803.6 v 685.1 h 88.2 V 12195 h 249.4 v 293.7 h 87.5 v -685.1 h -87.5 v 326.1 h -249.4 v -326.1 h -88.2"
         style="fill:#ffffff;fill-opacity:1;fill-rule:nonzero;stroke:none"
         id="path226" /><path
         d="m 12532.3,12438.3 c -49.5,0 -85.8,-22.2 -109,-66.6 -23.2,-44.4 -34.8,-114.1 -34.8,-209.1 0,-108.9 11.3,-187.4 33.9,-235.5 22.6,-48.1 59.2,-72.1 109.9,-72.1 49.5,0 85.7,23.1 108.7,69.3 23,46.3 34.6,120.3 34.6,222.1 0,101.2 -11.6,175.1 -34.6,221.8 -23,46.7 -59.2,70.1 -108.7,70.1 z m 0,-648.1 c -78.1,0 -137.1,30.1 -176.9,90.4 -39.8,60.3 -59.7,148.9 -59.7,265.8 0,117.2 19.9,205.7 59.7,265.5 39.8,59.8 98.8,89.8 176.9,89.8 77.7,0 136.7,-30 176.9,-90 40.2,-60 60.3,-148.4 60.3,-265.3 0,-116.9 -20.1,-205.5 -60.3,-265.8 -40.2,-60.3 -99.2,-90.4 -176.9,-90.4"
         style="fill:#ffffff;fill-opacity:1;fill-rule:nonzero;stroke:none"
         id="path228" /><path
         d="m 12900,11803.6 v 685.1 h 89.3 v -619.9 h 269.7 v -65.2 h -359"
         style="fill:#ffffff;fill-opacity:1;fill-rule:nonzero;stroke:none"
         id="path230" /><path
         d="m 13442.9,12069.6 h 179.2 l -89.9,358.5 z m -155.5,-266 186.2,685.1 h 121.2 l 187.9,-685.1 h -92.8 l -49.9,201.7 h -216.3 l -49.9,-201.7 h -86.4"
         style="fill:#ffffff;fill-opacity:1;fill-rule:nonzero;stroke:none"
         id="path232" /><path
         d="m 30109.3,11792.7 c -49.5,0 -85.9,-22.1 -109,-66.5 -23.3,-44.5 -34.9,-114.2 -34.9,-209.1 0,-108.9 11.4,-187.4 34,-235.5 22.6,-48.1 59.2,-72.2 109.9,-72.2 49.5,0 85.7,23.2 108.7,69.4 23,46.3 34.5,120.3 34.5,222.1 0,101.1 -11.5,175 -34.5,221.8 -23,46.7 -59.2,70 -108.7,70 z m 0,-648 c -78.1,0 -137.1,30.1 -176.9,90.4 -39.8,60.3 -59.8,148.9 -59.8,265.8 0,117.1 20,205.7 59.8,265.5 39.8,59.8 98.8,89.7 176.9,89.7 77.7,0 136.7,-30 176.9,-89.9 40.2,-60 60.3,-148.5 60.3,-265.3 0,-116.9 -20.1,-205.5 -60.3,-265.8 -40.2,-60.3 -99.2,-90.4 -176.9,-90.4"
         style="fill:#ffffff;fill-opacity:1;fill-rule:nonzero;stroke:none"
         id="path234" /><path
         d="m 30477,11158.1 v 685.1 h 89.3 v -619.9 h 269.7 v -65.2 h -359"
         style="fill:#ffffff;fill-opacity:1;fill-rule:nonzero;stroke:none"
         id="path236" /><path
         d="m 31019.8,11424.1 h 179.2 l -89.8,358.5 z m -155.4,-266 186.2,685.1 h 121.2 l 187.9,-685.1 h -92.8 l -49.9,201.7 h -216.3 l -49.9,-201.7 h -86.4"
         style="fill:#ffffff;fill-opacity:1;fill-rule:nonzero;stroke:none"
         id="path238" /><path
         d="m 36686.2,12584.7 h 179.2 l -89.9,358.5 z m -155.4,-266 186.2,685.1 h 121.2 l 187.9,-685.1 h -92.8 l -49.9,201.7 h -216.3 l -49.9,-201.7 h -86.4"
         style="fill:#ffffff;fill-opacity:1;fill-rule:nonzero;stroke:none"
         id="path240" /><path
         d="m 37119.5,12318.7 v 685.1 h 89.3 v -619.9 h 269.7 v -65.2 h -359"
         style="fill:#ffffff;fill-opacity:1;fill-rule:nonzero;stroke:none"
         id="path242" /><path
         d="m 37755.7,12953.4 c -49.5,0 -85.8,-22.2 -109,-66.6 -23.3,-44.5 -34.9,-114.2 -34.9,-209.1 0,-108.9 11.4,-187.4 34,-235.5 22.6,-48.1 59.2,-72.2 109.9,-72.2 49.5,0 85.7,23.2 108.7,69.4 23,46.3 34.6,120.3 34.6,222.1 0,101.1 -11.6,175.1 -34.6,221.8 -23,46.7 -59.2,70.1 -108.7,70.1 z m 0,-648.1 c -78.1,0 -137.1,30.1 -176.9,90.4 -39.8,60.3 -59.7,148.9 -59.7,265.8 0,117.2 19.9,205.7 59.7,265.5 39.8,59.8 98.8,89.8 176.9,89.8 77.7,0 136.6,-30 176.9,-90 40.2,-60 60.3,-148.5 60.3,-265.3 0,-116.9 -20.1,-205.5 -60.3,-265.8 -40.3,-60.3 -99.2,-90.4 -176.9,-90.4"
         style="fill:#ffffff;fill-opacity:1;fill-rule:nonzero;stroke:none"
         id="path244" /><path
         d="m 38118.8,12318.7 v 685.1 h 88.1 v -293.7 h 249.4 v 293.7 h 87.5 v -685.1 h -87.5 v 326.1 h -249.4 v -326.1 h -88.1"
         style="fill:#ffffff;fill-opacity:1;fill-rule:nonzero;stroke:none"
         id="path246" /><path
         d="m 38792.1,12584.7 h 179.2 l -89.9,358.5 z m -155.5,-266 186.2,685.1 h 121.2 l 187.9,-685.1 h -92.8 l -49.8,201.7 h -216.4 l -49.9,-201.7 h -86.4"
         style="fill:#ffffff;fill-opacity:1;fill-rule:nonzero;stroke:none"
         id="path248" /><path
         d="m 44115.6,12016.9 h 88.8 c 61.5,0 106.3,10.5 134.5,31.4 28.2,21 42.3,54.2 42.3,99.5 0,46 -14.8,79.9 -44.6,101.8 -29.8,21.8 -76.2,32.8 -139.2,32.8 h -81.8 z m 0,325.2 h 81.8 c 55.3,0 97,10.5 125.3,31.4 28.2,21 42.3,52.2 42.3,93.5 0,40.4 -13.4,69.1 -40.3,86.3 -26.8,17.1 -73.2,25.6 -138.9,25.6 h -70.2 z m -88.1,-387.7 v 685.1 h 156.5 c 63.1,0 108.9,-3.7 137.5,-11.3 28.6,-7.6 54.2,-20.6 76.6,-39.1 16.2,-12.9 28.8,-29.6 37.7,-49.9 8.8,-20.4 13.3,-42.9 13.3,-67.6 0,-38.8 -10.1,-71.2 -30.4,-96.9 -20.3,-25.7 -51,-45.3 -92,-58.5 48,-13.6 83.5,-34.4 106.7,-62.5 23.2,-28 34.8,-64 34.8,-107.8 0,-64.7 -22.4,-112.8 -67.2,-144.3 -44.9,-31.4 -113.1,-47.2 -204.8,-47.2 h -168.7"
         style="fill:#ffffff;fill-opacity:1;fill-rule:nonzero;stroke:none"
         id="path250" /><path
         d="m 44589.5,12194.1 v 445.4 h 88.1 v -439 c 0,-82.6 9.2,-136.1 27.5,-160.5 18.4,-24.4 52,-36.5 100.7,-36.5 47.6,0 80.6,12.4 99.2,37.2 18.5,24.8 27.8,78.1 27.8,159.8 v 439 h 87.6 v -445.4 c 0,-60.2 -3.4,-103.5 -10.2,-130 -6.7,-26.6 -18.2,-48.3 -34.5,-65.3 -18.5,-18.5 -42.5,-32.7 -71.9,-42.7 -29.4,-10.1 -62,-15.1 -98,-15.1 -36.7,0 -69.9,5 -99.5,15.1 -29.5,10 -53.4,24.2 -71.6,42.7 -16.7,16.4 -28.3,37.5 -35.1,63.2 -6.7,25.7 -10.1,69.8 -10.1,132.1"
         style="fill:#ffffff;fill-opacity:1;fill-rule:nonzero;stroke:none"
         id="path252" /><path
         d="m 45317.9,12428.1 c -12,25.6 -23.4,51.6 -34.2,78 -10.8,26.3 -21.3,53.1 -31.3,80.2 v -631.9 h -77.2 v 685.1 h 128.2 l 177.5,-388.6 c 13.5,-30.8 26.1,-60.3 37.7,-88.5 11.6,-28.2 22.2,-55.6 31.9,-82.1 -2.3,20.3 -4.1,41.3 -5.2,62.9 -1.2,21.6 -1.8,50.6 -1.8,86.9 v 409.4 h 77.1 v -685.1 h -86.4 l -216.3,473.7"
         style="fill:#ffffff;fill-opacity:1;fill-rule:nonzero;stroke:none"
         id="path254" /><path
         d="m 45870,12220.4 h 179.2 l -89.9,358.5 z m -155.4,-266 186.1,685.1 h 121.3 l 187.9,-685.1 h -92.8 l -49.9,201.7 h -216.3 l -49.9,-201.7 h -86.4"
         style="fill:#ffffff;fill-opacity:1;fill-rule:nonzero;stroke:none"
         id="path256" /><path
         d="m 20864.5,12935.1 v -549.8 h -77.3 v 490.3 h -278 v -490.3 h -77.3 v 549.8 h 432.6"
         style="fill:#ffffff;fill-opacity:1;fill-rule:nonzero;stroke:none"
         id="path258" /><path
         d="m 21076.6,12663.4 c 16.9,-4 38.2,-5.6 64,-5.6 93.3,0 150.1,41.5 150.1,117.4 0,72.6 -55.9,107.7 -141.2,107.7 -33.8,0 -59.5,-2.5 -72.9,-5.7 z m -77.2,265.2 c 37.3,5.7 86.1,10.6 148.3,10.6 76.4,0 132.4,-16.3 167.9,-45.7 32.9,-26.1 52.4,-66.1 52.4,-115 0,-49.8 -16,-88.9 -46.2,-117.5 -40.8,-40 -107.5,-60.3 -183,-60.3 -23.1,0 -44.4,0.8 -62.2,4.9 v -220.3 h -77.2 v 543.3"
         style="fill:#ffffff;fill-opacity:1;fill-rule:nonzero;stroke:none"
         id="path260" /><path
         d="m 21544.7,12935.1 v -231.7 c 0,-87.3 -1.8,-159 -7.1,-232.5 l 1.8,-0.8 c 30.1,57.1 67.4,116.7 111,181.9 l 193.7,283.1 h 77.2 v -549.8 h -72.8 v 234.1 c 0,88.9 0.9,154.2 7.1,223.5 l -2.7,0.8 c -29.3,-60.3 -70.2,-123.9 -111,-185.1 l -187.5,-273.3 h -82.6 v 549.8 h 72.9"
         style="fill:#ffffff;fill-opacity:1;fill-rule:nonzero;stroke:none"
         id="path262" /><path
         d="m 22133.5,12439.1 c 15.1,-2.4 37.3,-3.2 64.8,-3.2 80,0 153.7,26.9 153.7,106.8 0,75.1 -70.2,106.1 -154.6,106.1 h -63.9 z m 0,263.5 h 70.2 c 81.7,0 129.7,39.2 129.7,92.2 0,64.4 -53.4,89.7 -131.5,89.7 -35.6,0 -56,-2.4 -68.4,-4.9 z m -77.3,225.2 c 33.8,6.5 87,11.4 141.2,11.4 77.3,0 127.1,-12.3 164.4,-40 31.1,-21.2 49.7,-53.8 49.7,-97.1 0,-53 -38.2,-99.5 -101.2,-120.7 v -1.6 c 56.8,-13.1 123.5,-56.3 123.5,-137.9 0,-47.3 -20.5,-83.2 -50.7,-110.1 -41.7,-35.1 -109.3,-51.4 -207,-51.4 -53.3,0 -94.1,3.3 -119.9,6.5 v 540.9"
         style="fill:#ffffff;fill-opacity:1;fill-rule:nonzero;stroke:none"
         id="path264" /><path
         d="m 22847.6,12643.1 h -232.8 v -198.3 h 259.4 v -59.5 h -336.7 v 549.8 h 323.4 v -59.5 h -246.1 v -173.8 h 232.8 v -58.7"
         style="fill:#ffffff;fill-opacity:1;fill-rule:nonzero;stroke:none"
         id="path266" /><path
         d="m 23092.6,12874.7 h -182.1 v 60.4 h 443.3 v -60.4 h -183 v -489.4 h -78.2 v 489.4"
         style="fill:#ffffff;fill-opacity:1;fill-rule:nonzero;stroke:none"
         id="path268" /><path
         d="m 7436.55,10553.5 c 230.71,124.3 518.2,3.9 597.08,-242.9 34.29,-107.3 71.69,-243.1 99.26,-393.8 66.32,-362.4 -63.13,-746.7 -227.68,-773.5 -164.56,-26.9 -657.99,134.2 -759.25,647.5 -62.51,316.9 48.49,632.2 290.59,762.7"
         style="fill:#f7a491;fill-opacity:1;fill-rule:nonzero;stroke:none"
         id="path270" /><path
         d="m 7273.91,9769.8 c 13.18,-80.2 -29.13,-153.9 -94.5,-164.5 -65.36,-10.7 -129.04,45.7 -142.21,125.8 -13.19,80.2 29.13,153.9 94.49,164.5 65.37,10.7 129.04,-45.6 142.22,-125.8"
         style="fill:#f7a491;fill-opacity:1;fill-rule:nonzero;stroke:none"
         id="path272" /><path
         d="m 7131.69,9895.6 c 0,0 203.79,18.6 231.49,163.4 27.71,144.9 186.21,491.7 540.15,493.6 353.95,2 -369.64,165.8 -394.95,157 -25.32,-8.8 -329.84,-112.2 -329.84,-112.2 0,0 -167.26,-274 -168.34,-298 -1.09,-24.1 11.54,-278.3 11.54,-278.3 l 109.95,-125.5"
         style="fill:#0e2e35;fill-opacity:1;fill-rule:nonzero;stroke:none"
         id="path274" /><path
         d="m 7649.76,9511.4 364,53.3 c 0,0 12.09,-139.9 -147.3,-167.9 -194.34,-34.3 -216.7,114.6 -216.7,114.6"
         style="fill:#ffffff;fill-opacity:1;fill-rule:nonzero;stroke:none"
         id="path276" /><path
         d="m 9463.07,16579.1 259.17,-99.2 203.02,197.5 282.64,-131.8 151.6,277.3 326.2,-135 170.9,238.2 335.1,-78.4 -29.6,-127.2 -250.5,58.6 -180.4,-251.3 -313.6,129.8 -154.1,-282 -311.88,145.5 -198.27,-192.9 -240.22,91.9 -103.76,-154 -107.91,73.1 161.61,239.9"
         style="fill:#466eb6;fill-opacity:1;fill-rule:nonzero;stroke:none"
         id="path278" /><path
         d="m 26488.4,13878.5 124.6,228.8 -117.3,232.6 c -13.3,26.5 9.4,56.9 38.5,51.4 l 255.5,-48.2 184.4,183.8 c 21,20.9 56.8,8.6 60.6,-20.8 l 33.3,-258.6 231.2,-119.1 c 26.4,-13.6 25.8,-51.5 -1,-64.2 l -234.9,-111.7 -41.5,-257.3 c -4.7,-29.3 -40.9,-40.5 -61.3,-18.9 l -178.4,189.6 -256.9,-40 c -29.2,-4.5 -51,26.5 -36.8,52.6"
         style="fill:#f7cc7f;fill-opacity:1;fill-rule:nonzero;stroke:none"
         id="path280" /><path
         d="m 46789.8,14590 c -64.7,-278.8 -342.4,-452.2 -620.3,-387.3 -278,64.9 -450.9,343.5 -386.2,622.2 64.6,278.8 342.3,452.2 620.3,387.4 277.9,-64.9 450.8,-343.5 386.2,-622.3"
         style="fill:#f7cc7f;fill-opacity:1;fill-rule:nonzero;stroke:none"
         id="path282" /><path
         d="m 45998.9,14690.3 c -34.6,-149 57.9,-298 206.5,-332.7 148.6,-34.7 297.1,58.1 331.6,207.1 l -538.1,125.6"
         style="fill:#efefef;fill-opacity:1;fill-rule:nonzero;stroke:none"
         id="path284" /><path
         d="m 15668.9,14362.2 c -9.9,143.7 98.1,268.2 241.4,278.2 143.2,9.9 267.4,-98.4 277.3,-242.1 10,-143.6 -98.1,-268.1 -241.3,-278.1 -143.3,-10 -267.4,98.4 -277.4,242"
         style="fill:#f7cc7f;fill-opacity:1;fill-rule:nonzero;stroke:none"
         id="path286" /><path
         d="m 16109.8,13626 c -15.5,75.6 -24.9,156.6 -50.7,229.5 -22.1,62.7 -119.6,43.5 -114.7,-23.8 6.1,-82.4 31.7,-166 49,-246.8 6.9,-32.7 50.1,-47.9 78.7,-37.8 34.9,12.3 44.4,46 37.7,78.9 v 0"
         style="fill:#f7cc7f;fill-opacity:1;fill-rule:nonzero;stroke:none"
         id="path288" /><path
         d="m 16555.3,13949 c -86.2,50.9 -161.3,114.1 -240.8,174.3 -62.1,47.1 -129,-33.9 -78,-89.9 73.4,-80.3 169.7,-143.1 262.7,-198 29.4,-17.4 70.3,-0.4 84.7,28.7 16.1,32.6 0.9,67.5 -28.6,84.9 v 0"
         style="fill:#f7cc7f;fill-opacity:1;fill-rule:nonzero;stroke:none"
         id="path290" /><path
         d="m 16392.1,14415.7 c -19.5,-15.7 -23.4,-38.2 -11.3,-60.1 29.1,-53 103.1,-50.4 155.6,-48.6 54.8,1.8 109.6,13 161.5,30.8 76.6,26.2 35,145.4 -41.8,119.1 -150.4,-51.5 -207.4,4.4 -264,-41.2"
         style="fill:#f7cc7f;fill-opacity:1;fill-rule:nonzero;stroke:none"
         id="path292" /><path
         d="m 16309.3,14922.7 c -75.6,-111.1 -137.4,-148.5 -127.8,-209.7 5.6,-35.7 33.8,-52.7 68.2,-44.9 40.6,9.2 62.7,52.4 87.1,82.8 23.4,29.1 46.3,58.2 67.1,89.2 19,28.1 21.6,64.5 -6.1,88.7 -23.2,20.3 -69.2,22 -88.5,-6.1 v 0"
         style="fill:#f7cc7f;fill-opacity:1;fill-rule:nonzero;stroke:none"
         id="path294" /><path
         d="m 16014.6,14941.9 c -24.2,67.3 -29.5,91.8 -60.9,123 -27.3,27.2 -84.9,9.9 -88.7,-30.2 -4.4,-46.7 5.3,-64 30.8,-134.7 11.5,-32.1 48,-50 80.3,-38.6 31.9,11.2 50,48.3 38.5,80.5 v 0"
         style="fill:#f7cc7f;fill-opacity:1;fill-rule:nonzero;stroke:none"
         id="path296" /><path
         d="m 15696.2,14779.1 c -109.1,83.1 -131.3,106.5 -174.1,102 -25.2,-2.7 -53.4,-26.9 -47.9,-55.2 10.2,-52.5 40.7,-66.8 141,-140.2 26.9,-19.6 63.8,-20.6 87,6.1 20.8,23.9 20.6,67 -6,87.3 v 0"
         style="fill:#f7cc7f;fill-opacity:1;fill-rule:nonzero;stroke:none"
         id="path298" /><path
         d="m 15258,14398.1 c -42.9,-22.8 -25.7,-97.4 20.9,-103.5 44.6,-5.8 61.8,1.4 278.4,41 33.4,6.1 60.9,30.6 58.4,67.4 -2.2,31.2 -33.5,64.7 -67.2,58.6 -224.8,-40.7 -247.3,-40.5 -290.5,-63.5"
         style="fill:#f7cc7f;fill-opacity:1;fill-rule:nonzero;stroke:none"
         id="path300" /><path
         d="m 15597.3,14042.9 c -118.7,-115.2 -136.1,-94.9 -182.9,-165.3 -21.5,-32.2 13.9,-83.5 51.2,-76.7 47.9,8.8 60.7,16.9 123.2,66.5 36.2,28.9 70.9,59.7 104.2,91.9 24.7,23.9 18.1,68.6 -6.2,89.8 -27.7,24.2 -64.8,17.8 -89.5,-6.2 v 0"
         style="fill:#f7cc7f;fill-opacity:1;fill-rule:nonzero;stroke:none"
         id="path302" /><path
         d="m 26393.3,16268.6 -45.3,341.4 -254.3,-1 -56.4,335.3 -246,36.6 -74.6,246.2 -96.6,-35.2 99.7,-329.3 233.1,-34.7 58.8,-348.8 250,1 41.1,-309.4 90.5,97.9"
         style="fill:#f7cc7f;fill-opacity:1;fill-rule:nonzero;stroke:none"
         id="path304" /><path
         d="m 30780.9,14968 -341,-40.7 -2.6,-254.9 -335.1,-51.9 -39.9,-246.1 -246.6,-71.3 33.7,-97.5 329.8,95.4 37.9,233.3 348.6,53.9 2.5,250.8 309.1,36.8 -96.4,92.2"
         style="fill:#9bc1f9;fill-opacity:1;fill-rule:nonzero;stroke:none"
         id="path306" /><path
         d="m 4933.93,15350.7 859.61,-103.7 -366.85,667.4 z"
         style="fill:#96d9c9;fill-opacity:1;fill-rule:nonzero;stroke:none"
         id="path308" /><path
         d="m 43432.9,15772.1 859.6,-103.7 -366.8,667.4 z"
         style="fill:#86b1f2;fill-opacity:1;fill-rule:nonzero;stroke:none"
         id="path310" /><path
         d="m 21119.6,15849 -531,11.4 -197.3,505.3 131.9,51.8 162.9,-417.1 548.6,-11.9 128.7,-602.2 365.7,37.3 2.5,-142.6 -480.1,-48.8 -131.9,616.8"
         style="fill:#50bfa5;fill-opacity:1;fill-rule:nonzero;stroke:none"
         id="path312" /><path
         d="m 33475.1,15439.8 -100.8,259.2 -282.3,18.2 -92.4,298.6 -306.6,-73.6 -119.4,333 -290.7,-32.9 -167.1,301.6 113.8,63.5 125,-225.5 306.7,34.6 114.8,-320.1 311.8,74.9 101.9,-329.5 275.7,-17.8 93.4,-240.3 183.5,26.3 18.4,-129.2 -285.7,-41"
         style="fill:#50bfa5;fill-opacity:1;fill-rule:nonzero;stroke:none"
         id="path314" /><path
         d="m 36234.6,16057.5 c -20.6,-222.6 170.8,-426 383,-463.2 219.9,-38.4 415.8,104.9 491.4,307.4 149.2,399.6 -288,714.8 -525.1,473 -221.3,-225.7 -151.3,-561.1 87.6,-561.2 90.2,0 235.2,75.6 177.7,184.9 -12.9,24.5 -49.2,22.7 -62.6,0 -29,-49.4 -26.6,-51.2 -40.3,-62.2 -21.6,-17.3 -51.4,-23.1 -78.3,-22.6 -243.3,4.1 -81.6,560.8 205.3,426 157.4,-74 203.9,-253.2 149.2,-409.5 -52.6,-150.5 -193.7,-267.1 -357,-256.6 -195.1,12.5 -358.7,191.8 -371.3,384 -2.5,38.8 -56.1,38.2 -59.6,0 v 0"
         style="fill:#86b1f2;fill-opacity:1;fill-rule:nonzero;stroke:none"
         id="path316" /><path
         d="m 8778.99,13250.1 -1.27,160.1 -132.23,89.7 c -15.06,10.2 -11.9,33.3 5.34,39.1 l 151.46,50.7 44.21,153.9 c 5.04,17.5 27.93,21.6 38.73,6.9 l 94.87,-128.8 159.58,5.4 c 18.17,0.6 29.15,-19.9 18.58,-34.8 l -92.82,-130.2 54.4,-150.6 c 6.2,-17.1 -9.9,-34 -27.24,-28.5 l -152.23,48.3 -125.95,-98.4 c -14.34,-11.2 -35.28,-1.1 -35.43,17.2"
         style="fill:#f47458;fill-opacity:1;fill-rule:nonzero;stroke:none"
         id="path318" /><path
         d="m 40773.3,16462.2 c 0,0 35,99.1 152.3,134.5 104.6,31.5 201.6,-30.1 230.7,-127.2 33.7,-112.4 -24.6,-274.9 -245,-467.4 -289.7,38.6 -427.9,141.9 -461.6,254.3 -29.1,97 18,202.1 122.6,233.7 117.3,35.4 201,-27.9 201,-27.9"
         style="fill:#f48c7f;fill-opacity:1;fill-rule:nonzero;stroke:none"
         id="path320" /><path
         d="m 39922,16157 c 106.6,14.1 191.5,30.9 274.2,51.3 27.3,6.8 76.5,10.4 89.7,38.5 6.8,14.6 4.7,29.8 -9.3,39.5 -25.7,17.8 -64.6,-1.3 -92,-8.1 -83.8,-20.6 -179.6,-40 -277.5,-53.9 -18.4,-2.7 -29.9,-24 -26.1,-41.1 4.4,-19.5 22.6,-28.6 41,-26.2 v 0"
         style="fill:#f48c7f;fill-opacity:1;fill-rule:nonzero;stroke:none"
         id="path322" /><path
         d="m 41373.3,16285.6 c 40.3,9.2 80.3,19.1 120.4,29 38.4,9.4 85.3,13.7 118.5,35.8 24.4,16.2 18.2,52.5 -12.5,55.8 -39.7,4.1 -82.8,-13.5 -121.2,-23 -40.1,-10 -80.2,-19.8 -120.1,-30.4 -42.6,-11.3 -28.3,-77.1 14.9,-67.2 v 0"
         style="fill:#f48c7f;fill-opacity:1;fill-rule:nonzero;stroke:none"
         id="path324" /><path
         d="m 40419.8,15721 c 29.8,96.9 84.8,138 123.7,181.9 20.8,23.4 -2,57.2 -31.5,44.9 -80.8,-33.8 -133.9,-126.6 -157.6,-207 -12.5,-42.2 52.4,-62.1 65.4,-19.8 v 0"
         style="fill:#f48c7f;fill-opacity:1;fill-rule:nonzero;stroke:none"
         id="path326" /><path
         d="m 40933.5,15621.2 c -11.6,41.2 -15.1,83.3 -9.2,125.8 3.6,25.9 35.4,103.7 -14.7,104.7 -47.2,0.9 -53.4,-78.1 -56.6,-111.5 -4.1,-44.9 0.6,-90.9 13.2,-134 12.5,-42.5 79.5,-28 67.3,15 v 0"
         style="fill:#f48c7f;fill-opacity:1;fill-rule:nonzero;stroke:none"
         id="path328" /><path
         d="m 41212.5,15957 c 26.2,-10.8 52.4,-21.6 78.6,-32.5 26.2,-10.8 53.2,-29.2 81.1,-16 15.7,7.4 18.2,25.5 12.7,40 -10,26.4 -49.5,33.8 -73.4,43.5 -26.3,10.7 -52.5,21.3 -78.8,32 -17.5,7.1 -38.4,-6.4 -43.5,-23.4 -5.9,-19.5 5.8,-36.4 23.3,-43.6 v 0"
         style="fill:#f48c7f;fill-opacity:1;fill-rule:nonzero;stroke:none"
         id="path330" /><path
         d="m 40437.9,16641.8 c -134.7,184.9 -133.3,186.3 -154.6,199.1 -21.8,13 -51.2,-6.6 -45.1,-32.2 6,-25.4 5.5,-21.1 148,-215.1 11.3,-15.4 37,-13.8 49.9,-1.8 15.3,14.2 13.1,34.5 1.8,50 v 0"
         style="fill:#f48c7f;fill-opacity:1;fill-rule:nonzero;stroke:none"
         id="path332" /><path
         d="m 40803.3,16732.8 c 5.1,37.4 6.2,74.9 3.3,112.5 -2.7,35 -2.2,89 -39,104.8 -7.9,3.4 -20.4,0.3 -26.1,-6 -23.8,-26.3 -6.9,-70.7 -4.5,-102.9 2.6,-35.2 1.4,-70.7 -2,-105.8 -1.8,-18.4 15.2,-34.9 32.9,-35.5 19.9,-0.8 32.9,14.5 35.4,32.9 v 0"
         style="fill:#f48c7f;fill-opacity:1;fill-rule:nonzero;stroke:none"
         id="path334" /><path
         d="m 41327.9,16824.4 c 2.2,17.1 -13.9,28.9 -28.6,31 -30.3,4.2 -60.1,-31.5 -80,-50.8 -23.2,-22.6 -43.9,-47.3 -63.2,-73.3 -11.1,-15 -3.7,-38.3 11.2,-47.6 17.4,-10.8 35.8,-3.4 47.4,11.3 76.3,95.5 107.8,87.2 113.2,129.4"
         style="fill:#f48c7f;fill-opacity:1;fill-rule:nonzero;stroke:none"
         id="path336" /><path
         d="m 16430,17219.6 137.1,-58.9 c 0,0 228.9,51.1 254.4,94.1 25.6,43 40.6,151.6 72.5,151.7 32,0.1 92.6,-15.8 101.2,-91.9 6.3,-55.2 -86.5,-204.7 -75.3,-222.5 7,-11.2 84.8,-47.2 142.1,-72.7 37.7,-16.7 62.9,-53 65.6,-94.2 l 0.1,-0.1 c 1.8,-27.9 -16.1,-53.2 -42.9,-60.8 l -41.7,-11.8 9.6,-42.5 c 7.1,-31.7 -12.6,-63.3 -44.1,-70.6 l -32.2,-7.6 8,-26.1 c 10.3,-33.6 -10.8,-68.8 -45.3,-75.4 l -28,-5.4 0.6,-7.3 c 2.3,-30.6 -19.1,-57.8 -49.3,-62.7 l -27.7,-4.6 -365.1,156.8 c -34.2,14.7 -65.1,36.3 -90.7,63.4 l -119.3,76.4 c -12.8,8.3 -17.7,24.6 -11.5,38.6 l 141.7,318.3 c 6.9,15.4 24.7,22.4 40.2,15.8"
         style="fill:#50bfa5;fill-opacity:1;fill-rule:nonzero;stroke:none"
         id="path338" /><path
         d="m 42120.3,14342.4 137.1,-58.9 c 0,0 228.9,51.1 254.5,94.1 25.6,43 40.5,151.6 72.5,151.7 32,0.1 92.5,-15.8 101.2,-91.9 6.3,-55.2 -86.6,-204.7 -75.4,-222.5 7,-11.2 84.9,-47.3 142.2,-72.7 37.6,-16.7 62.9,-53 65.6,-94.2 v -0.2 c 1.8,-27.8 -16.1,-53.2 -42.9,-60.7 l -41.7,-11.8 9.6,-42.6 c 7.2,-31.6 -12.5,-63.2 -44.1,-70.6 l -32.1,-7.5 8,-26.1 c 10.3,-33.7 -10.9,-68.8 -45.3,-75.4 l -28,-5.4 0.5,-7.3 c 2.3,-30.6 -19.1,-57.8 -49.2,-62.8 l -27.8,-4.5 -365.1,156.8 c -34.2,14.7 -65,36.3 -90.6,63.4 l -119.3,76.4 c -12.9,8.2 -17.8,24.6 -11.6,38.5 l 141.8,318.4 c 6.8,15.4 24.7,22.4 40.1,15.8"
         style="fill:#94dcf0;fill-opacity:1;fill-rule:nonzero;stroke:none"
         id="path340" /></g></g></svg>
